<?xml version="1.0" standalone="no"?>
<!DOCTYPE svg PUBLIC "-//W3C//DTD SVG 20010904//EN"
 "http://www.w3.org/TR/2001/REC-SVG-20010904/DTD/svg10.dtd">
<svg version="1.0" xmlns="http://www.w3.org/2000/svg"
 width="1024.000000pt" height="1024.000000pt" viewBox="0 0 1024.000000 1024.000000"
 preserveAspectRatio="xMidYMid meet">
<metadata>
Created by potrace 1.11, written by Peter Selinger 2001-2013
</metadata>
<g transform="translate(0.000000,1024.000000) scale(0.100000,-0.100000)"
fill="#000000" stroke="none">
<path d="M4860 10073 c-324 -16 -725 -80 -1055 -169 -478 -130 -993 -364
-1423 -647 -452 -299 -890 -711 -1223 -1152 -565 -747 -909 -1657 -980 -2590
-7 -88 -17 -163 -22 -167 -17 -11 9 -550 38 -798 171 -1461 966 -2752 2195
-3565 206 -136 335 -209 575 -326 518 -251 1016 -395 1610 -465 187 -21 702
-30 906 -15 1036 79 1983 458 2792 1118 178 145 535 504 680 683 651 804 1025
1734 1107 2755 16 198 17 620 2 780 -51 540 -160 1003 -344 1459 -592 1466
-1845 2562 -3373 2951 -473 121 -988 172 -1485 148z m1112 -1396 c71 -35 140
-110 167 -183 21 -54 21 -72 21 -909 0 -470 3 -855 8 -855 4 0 295 288 647
640 719 719 677 685 825 685 147 0 115 26 743 -603 400 -401 561 -568 572
-596 40 -96 38 -202 -7 -296 -15 -33 -133 -158 -432 -457 -225 -227 -413 -413
-417 -413 -8 0 -79 174 -79 193 0 6 165 176 366 377 201 201 372 377 380 392
18 35 18 91 0 126 -8 15 -250 262 -538 549 -553 551 -544 544 -620 528 -27 -6
-192 -166 -840 -813 l-808 -807 0 1085 c0 1032 -1 1087 -18 1119 -10 19 -34
43 -53 53 -32 17 -76 18 -779 18 -721 0 -746 -1 -777 -20 -18 -10 -40 -31 -50
-47 -17 -25 -18 -82 -23 -938 l-5 -910 -59 -84 -59 -83 -711 710 c-771 771
-736 740 -818 713 -46 -15 -1084 -1054 -1094 -1094 -3 -16 -4 -47 -1 -69 5
-39 35 -71 519 -555 l513 -513 -73 -72 -72 -73 -524 525 c-497 498 -525 528
-546 585 -27 73 -30 179 -6 244 9 24 31 64 50 90 19 25 268 279 553 563 589
588 570 573 718 573 151 0 105 38 797 -653 l617 -616 3 834 3 835 26 55 c42
89 126 162 219 191 14 4 381 7 815 6 l790 -2 57 -28z m-697 -766 c45 -21 89
-61 113 -106 15 -27 17 -68 14 -355 -2 -179 -6 -333 -8 -343 -5 -15 -11 -12
-35 21 -70 95 -211 151 -381 152 l-48 0 0 233 c0 137 5 248 11 272 13 48 80
116 130 132 56 18 159 15 204 -6z m-90 -749 c90 -41 127 -93 129 -177 1 -100
-50 -135 -346 -238 -218 -76 -268 -106 -311 -187 -26 -49 -28 -62 -24 -125 4
-65 12 -85 106 -270 l102 -200 -3 -159 -3 -159 -227 391 c-227 390 -228 391
-228 450 0 137 56 342 121 443 67 105 214 207 349 244 86 23 271 16 335 -13z
m205 -344 c0 -35 -9 -483 -20 -997 -20 -929 -24 -989 -55 -985 -5 1 -83 129
-174 285 l-164 283 -13 530 c-16 642 -16 697 -5 714 4 7 64 33 133 57 69 24
144 53 166 64 40 21 112 86 112 103 0 4 5 8 10 8 6 0 10 -27 10 -62z m2444
-1259 l-97 -234 -166 -167 c-91 -93 -169 -168 -174 -168 -7 0 -68 125 -82 171
-6 19 35 64 301 330 169 170 310 307 311 305 2 -2 -40 -108 -93 -237z m-2158
-200 c103 -155 146 -293 148 -474 1 -71 -5 -143 -12 -175 -21 -86 -86 -208
-154 -289 -72 -88 -49 -104 -190 139 l-101 174 22 36 c35 56 72 138 88 193 11
38 16 128 20 327 l6 275 64 -70 c35 -38 84 -100 109 -136z m1264 -31 c49 -110
54 -129 52 -183 -12 -278 -68 -524 -176 -773 -58 -134 -63 -122 137 -319 268
-265 665 -643 675 -643 5 0 85 138 177 308 93 169 221 395 285 502 153 256
179 304 235 435 48 113 86 240 106 358 l11 68 147 -3 146 -3 -3 -40 c-6 -83
-44 -260 -79 -368 -47 -144 -164 -374 -280 -553 -114 -176 -227 -376 -304
-544 -60 -129 -65 -146 -113 -400 -21 -115 -41 -180 -69 -221 -20 -30 -29 -34
-70 -37 -103 -7 -111 0 -807 663 -425 404 -417 397 -438 386 -9 -5 -50 -41
-89 -80 -104 -101 -106 -95 75 -283 81 -85 257 -271 392 -414 508 -539 499
-528 500 -630 0 -85 -53 -117 -222 -133 -282 -27 -467 -105 -937 -394 -257
-158 -383 -227 -518 -281 -377 -154 -755 -166 -1146 -36 -130 44 -302 123
-417 192 -41 25 -157 95 -257 156 -186 113 -481 267 -564 295 -25 9 -112 27
-195 41 -303 53 -361 94 -324 226 5 20 21 50 34 68 29 40 339 372 616 660 334
348 380 400 380 432 0 31 -24 65 -88 124 -58 54 -78 61 -112 39 -15 -10 -262
-241 -549 -513 -287 -272 -541 -505 -564 -518 -68 -38 -138 -19 -190 50 -16
21 -21 52 -28 160 -18 292 -106 501 -403 963 -177 274 -275 476 -332 681 -27
100 -54 243 -54 287 l0 27 145 0 144 0 6 -37 c17 -111 60 -270 99 -365 51
-125 86 -189 217 -398 112 -179 272 -456 328 -568 21 -42 57 -131 80 -197 23
-66 46 -124 50 -128 10 -10 65 38 351 313 129 124 299 285 377 359 189 177
187 172 108 356 -55 128 -98 265 -125 396 -25 120 -39 329 -22 329 6 0 37 -31
69 -69 32 -38 61 -70 64 -70 3 -1 36 44 74 99 38 55 73 100 78 100 5 0 7 -6 4
-13 -9 -25 13 -267 34 -364 141 -649 675 -1130 1339 -1204 196 -22 478 8 637
68 6 3 37 -42 71 -102 l60 -106 78 138 c42 76 89 159 104 185 19 34 48 63 101
99 103 72 292 265 367 376 110 163 198 360 236 533 9 42 22 132 29 200 l13
125 89 158 c48 86 91 157 94 157 4 0 31 -55 61 -122z"/>
<path d="M5082 7080 c-52 -12 -59 -25 -27 -54 38 -36 85 -35 127 3 30 27 31
29 12 38 -30 16 -76 21 -112 13z"/>
<path d="M3946 3353 c-507 -520 -635 -658 -618 -665 9 -3 55 -18 102 -33 209
-65 386 -155 755 -385 461 -288 643 -354 965 -355 316 0 506 69 940 339 193
120 446 253 748 393 72 34 132 67 132 72 0 6 -48 62 -107 123 -412 435 -657
686 -682 701 -45 27 -89 21 -182 -24 -389 -189 -801 -248 -1192 -169 -135 28
-337 96 -469 159 -172 82 -151 91 -392 -156z"/>
</g>
</svg>
